<svg width="45" height="45" viewBox="0 0 45 45" fill="none" xmlns="http://www.w3.org/2000/svg">
<path fill-rule="evenodd" clip-rule="evenodd" d="M22.5 45C34.9264 45 45 34.9264 45 22.5C45 10.0736 34.9264 0 22.5 0C10.0736 0 0 10.0736 0 22.5C0 34.9264 10.0736 45 22.5 45ZM12 16C12 13.7909 13.7909 12 16 12H27.5652C29.7744 12 31.5652 13.7909 31.5652 16V21.6956C31.5652 23.9048 29.7744 25.6956 27.5652 25.6956H16C13.7909 25.6956 12 23.9048 12 21.6956V16ZM14.7391 16.3478C14.7391 15.2433 15.6346 14.3478 16.7391 14.3478H26.8261C27.9307 14.3478 28.8261 15.2433 28.8261 16.3478V21.3478C28.8261 22.4524 27.9307 23.3478 26.8261 23.3478H16.7391C15.6346 23.3478 14.7391 22.4524 14.7391 21.3478V16.3478ZM12 31.9563C12 31.0919 12.7008 30.3911 13.5652 30.3911H24.913C25.7775 30.3911 26.4783 31.0919 26.4783 31.9563C26.4783 32.8208 25.7775 33.5215 24.913 33.5215H13.5652C12.7008 33.5215 12 32.8208 12 31.9563ZM29.9998 33.5215C30.8642 33.5215 31.565 32.8208 31.565 31.9563C31.565 31.0919 30.8642 30.3911 29.9998 30.3911C29.1353 30.3911 28.4346 31.0919 28.4346 31.9563C28.4346 32.8208 29.1353 33.5215 29.9998 33.5215Z" fill="white"/>
</svg>
